<svg version="1.0" xmlns="http://www.w3.org/2000/svg"
 width="600.000000pt" height="600.000000pt" viewBox="0 0 600.000000 600.000000"
 preserveAspectRatio="xMidYMid meet">
<metadata>
Its fine
</metadata>
<g transform="translate(0.000000,600.000000) scale(0.100000,-0.100000)"
fill="#000000" stroke="none">
<path d="M4483 5133 c-11 -25 -18 -78 -21 -154 l-4 -115 -30 -12 c-34 -13 -29
-35 7 -26 25 6 27 0 51 -139 3 -20 10 -39 14 -42 19 -12 20 20 5 96 -9 44 -14
84 -10 87 4 4 34 12 68 17 34 6 62 16 65 23 3 11 -11 13 -69 10 l-74 -3 3 85
c3 109 19 180 39 180 9 0 30 -16 49 -35 37 -40 44 -42 44 -17 0 30 -67 82
-105 82 -9 0 -23 -16 -32 -37z"/>
<path d="M2745 5126 c-24 -36 -108 -85 -147 -86 -16 0 -28 -4 -28 -10 0 -12
-110 -46 -224 -69 -48 -9 -85 -21 -84 -27 5 -15 85 -5 188 22 52 14 101 27
109 27 24 3 31 -54 39 -286 8 -262 26 -298 30 -62 3 139 -7 267 -25 343 -4 19
2 25 50 46 65 29 127 81 127 106 0 31 -14 29 -35 -4z"/>
<path d="M2725 5040 c-9 -14 36 -359 61 -468 8 -40 27 -18 41 48 28 138 85
208 134 164 40 -36 79 -141 79 -211 0 -23 5 -33 15 -33 19 0 19 36 0 118 -32
137 -96 199 -167 161 -11 -6 -35 -43 -53 -82 -21 -44 -36 -66 -39 -57 -7 20
-46 304 -46 335 0 26 -15 41 -25 25z"/>
<path d="M1500 5030 c-68 -8 -90 -20 -122 -62 -69 -91 -82 -179 -46 -304 13
-44 22 -86 20 -93 -2 -6 -32 -24 -65 -40 -34 -15 -67 -34 -73 -42 -32 -40 -17
-116 27 -140 13 -6 76 -14 141 -17 65 -3 118 -8 118 -11 0 -4 -16 -34 -36 -67
-20 -32 -45 -79 -56 -103 -10 -25 -51 -79 -91 -120 -40 -42 -93 -103 -118
-136 -70 -91 -248 -361 -266 -403 -9 -20 -19 -73 -22 -116 -5 -65 -9 -81 -26
-90 -84 -44 -124 -79 -144 -126 -43 -99 -45 -132 -26 -454 24 -425 35 -458
162 -506 45 -17 72 -21 124 -17 l66 4 6 -81 c5 -90 29 -151 61 -160 12 -3 58
-6 104 -6 l82 0 2 -107 c1 -60 2 -274 3 -478 1 -392 6 -441 48 -470 29 -20 75
-19 113 4 l31 19 6 353 c4 195 7 425 7 512 l0 157 53 0 53 0 0 -53 c0 -62 21
-102 62 -118 28 -11 195 -7 223 5 14 6 16 -22 15 -281 -1 -335 14 -473 56
-506 26 -22 100 -19 124 4 7 8 19 48 26 89 12 72 23 94 40 84 4 -3 8 -29 8
-59 0 -79 20 -206 37 -233 12 -20 21 -23 70 -20 70 4 85 22 109 128 14 60 18
142 21 405 3 207 9 335 15 342 15 19 103 17 118 -2 13 -16 13 -16 -6 -590 l-7
-190 59 -29 c80 -39 166 -68 175 -59 6 8 25 431 36 826 l6 197 62 0 c34 0 81
7 103 14 54 19 149 92 168 127 21 41 18 101 -7 133 -45 58 -111 71 -210 42
-29 -9 -54 -16 -55 -16 -1 0 -16 45 -33 99 -35 111 -61 143 -134 162 l-42 10
-2 127 c-1 115 -4 137 -37 239 -19 61 -38 145 -42 185 -6 76 11 266 26 282 5
5 33 0 67 -12 81 -29 192 -52 253 -52 115 0 335 63 403 115 59 45 107 140 107
212 0 29 9 79 20 110 30 85 27 116 -17 164 -20 22 -55 50 -77 61 -58 30 -170
35 -261 11 -61 -16 -78 -17 -135 -6 -46 9 -88 9 -145 3 -44 -6 -80 -10 -81
-10 0 0 5 23 12 52 19 72 17 149 -4 206 -29 75 -97 161 -146 183 -34 15 -50
32 -90 101 -28 46 -71 103 -96 128 -73 71 -227 139 -315 140 l-30 0 3 58 c3
46 0 62 -18 84 -30 39 -78 45 -140 19 -64 -28 -82 -27 -102 7 -9 15 -50 60
-91 100 -54 54 -84 76 -113 82 -43 10 -45 10 -124 0z m121 -30 c24 -7 57 -32
98 -75 59 -61 69 -85 35 -85 -22 0 -273 -128 -326 -167 l-47 -34 -21 68 c-24
82 -17 146 24 217 32 55 54 68 126 77 30 3 60 7 65 7 6 1 26 -3 46 -8z m419
-190 c38 -38 19 -178 -33 -237 -52 -59 -231 -164 -321 -187 -133 -35 -415 -28
-443 11 -24 32 -15 61 28 90 38 25 51 27 222 38 242 15 260 24 350 173 67 112
150 159 197 112z m209 -196 c18 -8 65 -35 103 -60 57 -38 80 -62 123 -128 l53
-81 -42 -10 c-90 -23 -172 -99 -227 -211 -30 -60 -31 -68 -27 -161 3 -84 8
-108 35 -164 18 -40 44 -76 63 -90 l31 -24 -47 -41 c-30 -25 -45 -45 -40 -52
5 -9 18 -4 44 16 102 81 255 161 399 211 75 26 108 32 173 32 44 0 85 -3 90
-6 5 -3 -3 -18 -17 -33 -36 -38 -65 -109 -65 -162 0 -40 5 -49 40 -81 32 -28
59 -40 129 -57 132 -32 196 -27 301 27 23 12 44 21 47 21 11 0 4 -52 -15 -103
-36 -95 -91 -135 -255 -182 -142 -41 -220 -43 -350 -10 -115 30 -212 64 -252
90 l-24 16 27 32 c33 39 14 50 -24 14 -28 -25 -147 -87 -169 -87 -7 0 -13 -6
-13 -14 0 -17 35 -9 95 22 l39 20 56 -31 c30 -17 56 -31 57 -32 2 -1 -4 -36
-12 -79 -30 -158 -16 -316 44 -478 27 -73 30 -238 6 -296 -23 -55 -77 -104
-155 -142 -66 -32 -70 -33 -89 -16 -46 41 -120 59 -266 61 -182 4 -205 13
-304 126 -102 118 -174 264 -179 366 -4 68 -2 76 27 121 37 58 41 89 6 50 -13
-16 -27 -28 -30 -28 -3 0 -5 21 -6 48 -1 79 -16 10 -24 -116 -6 -98 -5 -119
14 -179 38 -121 199 -350 270 -385 l32 -15 -45 -12 c-72 -18 -89 -14 -157 38
-176 134 -237 273 -239 546 -1 40 -7 83 -16 100 -13 27 -14 13 -10 -150 5
-190 17 -249 67 -334 28 -46 163 -185 208 -213 l33 -21 -22 -17 c-32 -24 -9
-34 34 -16 134 56 414 77 519 39 100 -36 135 -109 123 -254 -4 -44 -3 -79 1
-79 5 0 33 7 63 15 30 8 74 15 96 15 44 0 54 -10 54 -55 0 -71 -244 -175 -338
-144 -39 13 -47 38 -38 117 8 73 -6 114 -67 197 -54 72 -82 86 -131 64 -23
-10 -74 -14 -191 -14 -185 1 -228 13 -337 92 -131 95 -204 184 -264 324 l-34
77 7 238 6 239 43 28 c69 45 125 140 185 313 33 95 35 126 15 227 -66 327 -70
420 -20 504 16 26 36 61 44 77 21 40 45 53 126 65 98 15 142 32 248 98 103 64
156 110 182 159 12 22 27 34 44 36 38 5 101 -3 139 -18z m351 -326 c55 -29 60
-43 18 -52 -49 -10 -140 -108 -164 -177 -23 -69 -24 -205 0 -268 15 -41 15
-45 -1 -57 -46 -36 -85 -27 -126 29 -39 51 -61 132 -61 222 0 68 4 89 29 139
32 65 104 143 156 169 47 23 97 21 149 -5z m-1677 -1077 c9 -21 32 -52 52 -68
l36 -30 3 -294 c5 -335 13 -390 71 -466 35 -46 42 -63 27 -63 -5 0 -17 -16
-27 -34 -15 -27 -27 -36 -55 -41 -101 -17 -209 37 -240 120 -14 36 -36 301
-45 540 -6 142 -5 179 9 226 19 65 28 77 80 118 52 41 70 40 89 -8z m264 -349
l-7 -229 41 -84 c22 -46 56 -106 76 -132 19 -27 33 -50 31 -52 -2 -2 -39 -13
-83 -24 l-80 -21 -23 28 c-13 15 -35 51 -49 80 -27 58 -27 59 -37 480 l-4 182
71 0 70 0 -6 -228z m1555 -478 c41 -21 68 -67 84 -145 14 -68 32 -98 60 -99 6
0 31 7 54 15 108 38 200 3 200 -76 0 -76 -109 -164 -217 -175 -86 -9 -162 15
-198 63 -25 31 -29 49 -36 133 -8 102 -26 160 -61 197 l-21 23 24 45 c22 42
26 45 54 39 17 -4 42 -13 57 -20z m-1218 -192 c100 -69 157 -82 347 -82 85 0
174 5 199 11 44 10 46 10 73 -23 32 -38 82 -136 74 -144 -3 -3 -138 -1 -300 5
-163 6 -380 11 -484 12 -194 0 -286 8 -303 25 -6 6 -13 44 -16 86 -11 132 16
173 135 207 109 32 121 32 165 -11 21 -20 70 -59 110 -86z m1100 46 c10 -16
19 -59 22 -101 3 -39 7 -87 9 -106 4 -32 4 -33 -15 -16 -20 18 -70 18 -157 0
l-31 -7 4 58 c3 35 -1 80 -9 111 l-14 52 71 29 c77 33 91 31 120 -20z m-1138
-810 c-7 -447 -9 -504 -24 -515 -23 -18 -49 -16 -71 6 -28 28 -32 101 -30 579
l2 432 65 0 64 0 -6 -502z m857 322 l64 0 -3 -52 c-2 -29 -6 -181 -8 -338 -6
-383 -24 -477 -96 -495 -41 -10 -58 13 -71 94 -11 75 -9 132 11 346 7 73 8
187 4 293 -6 173 -6 174 14 163 11 -6 49 -11 85 -11z m426 -290 c-4 -135 -10
-294 -13 -355 -3 -60 -6 -134 -6 -162 0 -53 -9 -63 -37 -45 -7 4 -20 46 -29
92 -27 141 -3 410 51 576 13 40 27 90 31 109 3 20 8 35 9 33 1 -2 -1 -113 -6
-248z"/>
<path d="M1803 4130 c-105 -25 -182 -148 -211 -335 -21 -137 56 -284 176 -337
82 -37 202 -2 291 83 55 54 77 102 92 211 21 154 -19 263 -123 332 -70 47
-152 64 -225 46z m138 -36 c68 -20 151 -99 168 -159 15 -53 14 -188 -2 -247
-35 -134 -190 -239 -307 -208 -77 21 -167 140 -177 234 -9 80 46 269 95 328
31 36 94 67 138 68 17 0 55 -7 85 -16z"/>
<path d="M1855 4030 c-17 -3 -42 -14 -57 -24 -58 -38 -106 -217 -79 -298 26
-78 120 -140 188 -124 39 10 108 88 127 143 9 26 16 78 16 117 0 83 -19 122
-77 159 -45 30 -78 37 -118 27z"/>
<path d="M5090 4764 c-14 -22 -24 -58 -27 -98 -5 -55 -3 -66 16 -85 23 -23 61
-27 92 -11 32 18 21 28 -28 27 l-48 -2 -3 43 -3 42 36 0 c53 0 94 25 95 58 0
24 -48 62 -79 62 -23 0 -34 -8 -51 -36z"/>
<path d="M3307 4783 c-24 -23 4 -88 69 -166 13 -16 24 -35 24 -43 0 -19 -59
-19 -87 1 -32 22 -38 0 -7 -24 18 -14 41 -21 71 -21 72 0 72 40 -2 134 -26 33
-45 69 -45 83 0 22 3 24 28 19 15 -4 37 -19 49 -34 17 -20 25 -24 34 -15 9 9
4 19 -19 42 -24 24 -39 31 -70 31 -21 0 -42 -3 -45 -7z"/>
</g>
</svg>
